<svg width="24" height="24" viewBox="0 0 24 24" fill="none" xmlns="http://www.w3.org/2000/svg">
  <!-- 노란 배경 -->
  <rect width="24" height="24" rx="4" fill="#FEE500"/>
  <!-- 검은 말풍선 -->
  <path d="M6 8c0-1.1.9-2 2-2h8c1.1 0 2 .9 2 2v8c0 1.1-.9 2-2 2h-2.5l-2.5 2.5L9 18H8c-1.1 0-2-.9-2-2V8z" fill="#000000"/>
  <path d="M14 11.5c0 .83-.67 1.5-1.5 1.5h-5c-.83 0-1.5-.67-1.5-1.5S6.67 10 7.5 10h5c.83 0 1.5.67 1.5 1.5z" fill="#FEE500"/>
  <!-- TALK 텍스트 -->
  <text x="12" y="14.5" text-anchor="middle" font-size="7" font-weight="700" fill="#FEE500" font-family="Arial, sans-serif" letter-spacing="0.5">TALK</text>
</svg>

